<?xml version="1.0" standalone="no"?>
<!DOCTYPE svg PUBLIC "-//W3C//DTD SVG 20010904//EN"
 "http://www.w3.org/TR/2001/REC-SVG-20010904/DTD/svg10.dtd">
<svg version="1.0" xmlns="http://www.w3.org/2000/svg"
 width="350.000000pt" height="350.000000pt" viewBox="0 0 350.000000 350.000000"
 preserveAspectRatio="xMidYMid meet">
<metadata>
Created by potrace 1.14, written by Peter Selinger 2001-2017
</metadata>
<g transform="translate(0.000000,350.000000) scale(0.100000,-0.100000)"
fill="#000000" stroke="none">
<path d="M1476 3336 c-6 -6 -18 -12 -26 -14 -8 -2 -17 -8 -18 -13 -2 -5 -8 -7
-12 -4 -5 3 -21 -6 -36 -20 -14 -13 -30 -22 -35 -19 -5 3 -9 0 -9 -6 0 -6 -4
-8 -10 -5 -5 3 -10 0 -10 -7 0 -8 -12 -15 -26 -16 -29 -2 -67 15 -59 27 3 5
-1 11 -8 14 -16 6 -41 -29 -27 -38 13 -8 0 -37 -15 -31 -7 2 -16 2 -19 -1 -3
-3 -24 -7 -46 -9 -40 -4 -90 -28 -90 -45 0 -5 -6 -6 -12 -4 -15 6 -45 -40 -69
-105 -10 -25 -18 -41 -18 -36 -1 5 -8 3 -16 -4 -8 -7 -15 -9 -15 -4 0 5 -4 3
-8 -4 -5 -7 -19 -15 -33 -17 -13 -3 -29 -11 -35 -20 -6 -8 -14 -12 -17 -8 -4
3 -7 -1 -7 -11 0 -9 -4 -15 -9 -12 -5 4 -12 -7 -16 -24 -4 -17 -11 -28 -15
-25 -13 8 -21 -47 -24 -169 -2 -84 -6 -111 -18 -120 -8 -6 -15 -14 -14 -18 2
-10 -51 -48 -57 -42 -3 3 -4 -2 -3 -12 1 -9 13 -26 26 -36 l24 -20 -33 -29
c-19 -16 -30 -29 -25 -29 5 0 3 -4 -4 -8 -14 -9 -25 -51 -26 -92 0 -46 9 -75
34 -115 25 -38 34 -104 18 -130 -9 -15 -2 -96 9 -104 6 -3 16 -17 23 -31 7
-14 21 -31 31 -37 14 -11 17 -29 17 -105 1 -51 1 -95 2 -98 4 -15 12 -47 15
-65 2 -11 4 -20 5 -20 1 0 3 -7 5 -15 8 -33 31 -86 43 -98 6 -7 12 -20 12 -28
0 -8 8 -14 18 -15 9 0 12 -3 5 -5 -7 -3 -4 -13 10 -29 75 -82 91 -95 111 -95
27 0 46 -18 46 -42 0 -10 4 -18 10 -18 5 0 7 -7 4 -15 -4 -8 -1 -21 5 -29 6
-7 8 -16 5 -19 -3 -3 -2 -12 2 -19 5 -7 10 -21 11 -31 4 -22 52 -116 71 -139
8 -10 12 -18 8 -18 -7 0 -1 -7 75 -90 l41 -44 -30 -15 c-17 -7 -33 -25 -36
-37 -4 -13 -10 -24 -14 -24 -4 0 -9 -17 -10 -37 -2 -22 -10 -44 -20 -51 -9 -7
-16 -16 -16 -20 2 -8 -3 -24 -18 -64 -8 -23 -27 -37 -58 -43 -3 -1 -18 -4 -35
-8 -16 -4 -46 -9 -65 -12 -19 -3 -40 -13 -47 -21 -6 -8 -14 -15 -17 -15 -20 3
-26 -1 -26 -15 0 -8 4 -13 9 -10 5 3 12 -5 15 -19 4 -14 13 -25 22 -25 8 0 24
-9 35 -19 25 -23 164 -91 198 -98 13 -2 34 -9 45 -16 12 -6 24 -10 29 -9 4 1
7 -2 7 -8 0 -5 7 -10 15 -10 9 0 34 -9 55 -20 22 -11 43 -19 47 -18 5 1 18 -3
31 -11 13 -7 28 -10 35 -8 7 2 17 -2 22 -9 16 -20 200 -33 343 -23 34 2 63 0
65 -4 4 -14 355 -12 422 2 33 8 65 14 70 15 6 1 15 4 20 7 6 4 19 5 29 3 11
-1 25 0 30 4 14 8 36 13 58 13 10 0 20 5 23 10 4 5 10 7 15 4 28 -17 189 114
205 167 4 13 12 28 17 35 5 7 12 25 14 42 5 28 2 31 -38 42 -51 15 -44 13 -93
22 -96 18 -93 17 -90 43 1 13 -2 24 -6 24 -5 0 -9 6 -9 13 0 19 -24 67 -33 67
-5 0 -5 5 -2 10 3 6 2 10 -3 10 -5 0 -7 11 -4 25 2 15 0 25 -7 25 -6 0 -10 3
-10 8 3 17 -1 35 -7 29 -3 -3 -18 5 -33 19 -14 13 -32 22 -39 19 -9 -3 -10 0
-2 15 6 11 15 20 21 20 6 0 8 4 4 9 -3 5 4 12 15 16 11 4 18 11 15 16 -4 5 1
9 9 9 14 0 20 12 17 33 0 4 6 7 16 7 9 0 14 3 10 6 -3 4 -1 12 6 20 36 40 38
44 25 44 -8 0 -7 4 3 10 9 5 20 22 24 37 3 15 14 33 23 41 9 7 11 10 3 6 -10
-5 -12 -3 -5 7 8 14 12 27 18 64 2 11 5 22 6 25 2 3 4 10 5 15 2 6 4 13 5 18
4 12 7 26 9 37 0 5 19 14 41 20 40 11 54 21 80 60 8 12 25 34 38 48 12 15 30
44 39 65 9 20 21 37 26 37 4 0 5 5 2 10 -3 6 -2 10 3 10 5 0 9 6 10 13 1 19
10 72 13 75 1 1 2 11 3 21 0 11 4 23 9 27 10 10 9 192 -2 198 -7 5 -8 95 -1
104 4 3 7 20 9 38 0 8 6 12 11 9 6 -3 10 1 10 10 0 8 9 23 19 32 11 9 18 20
15 25 -3 4 0 8 5 8 6 0 11 7 11 15 0 8 4 15 8 15 13 0 6 142 -8 150 -6 4 -11
11 -11 16 1 5 -5 16 -13 26 -8 9 -12 19 -9 22 4 3 1 6 -5 6 -15 0 -16 46 -2
55 6 3 10 17 10 31 0 13 3 24 8 24 4 0 7 20 7 45 0 25 -3 45 -8 45 -4 0 -6 4
-3 8 8 14 -27 79 -67 123 -16 18 -16 20 14 47 30 27 31 28 7 29 -41 3 -69 13
-63 23 3 5 -4 12 -16 15 -11 4 -18 9 -15 13 3 3 -2 14 -11 25 -10 11 -12 17
-5 13 8 -5 5 5 -6 26 -10 18 -24 52 -32 75 -7 24 -33 63 -57 88 -38 40 -49 46
-88 48 -45 2 -48 4 -48 50 0 9 -3 17 -7 17 -3 0 -6 10 -6 21 1 12 -5 24 -12
26 -7 3 -12 1 -11 -4 5 -26 -6 -20 -57 31 -55 56 -138 104 -189 108 -14 1 -25
5 -25 9 0 3 -47 6 -105 6 -58 0 -105 -3 -105 -7 0 -4 -6 -7 -12 -7 -26 3 -98
-15 -98 -24 0 -4 -7 -6 -15 -3 -8 3 -20 2 -27 -2 -19 -12 -41 -14 -53 -4 -5 4
-19 10 -30 12 -11 1 -23 7 -26 11 -3 4 -16 9 -27 10 -12 1 -22 4 -22 7 0 12
-95 8 -102 -4 -6 -8 -8 -8 -8 1 0 16 -77 15 -94 -1z"/>
</g>
</svg>
